<svg width="40" height="40" fill="none" xmlns="http://www.w3.org/2000/svg"><path d="M20 1.333l.65-.759a1 1 0 00-1.301 0l.65.76zm-18.667 16l-.65-.759-.35.3v.46h1zm13.333 21.334v1a1 1 0 001-1h-1zm10.667 0h-1a1 1 0 001 1v-1zm13.333-21.334h1v-.46l-.349-.299-.65.76zM4 39.668h10.666v-2H4v2zm35.317-23.093l-18.666-16-1.302 1.519 18.667 16 1.301-1.519zM19.35.574l-18.667 16 1.302 1.519 18.667-16L19.349.574zm-3.683 38.093v-8h-2v8h2zm8.667-8v8h2v-8h-2zm1 9H36v-2H25.333v2zM39.666 36V17.334h-2V36h2zM.333 17.334V36h2V17.334h-2zm19.667 9a4.333 4.333 0 014.333 4.333h2A6.333 6.333 0 0020 24.333v2zm0-2a6.333 6.333 0 00-6.334 6.333h2A4.333 4.333 0 0120 26.333v-2zm16 15.333A3.667 3.667 0 0039.666 36h-2c0 .92-.746 1.667-1.666 1.667v2zm-32-2c-.92 0-1.667-.746-1.667-1.667h-2A3.667 3.667 0 004 39.667v-2z" fill="#737A92"/></svg>