<svg viewBox="0 0 140 140" fill="none" xmlns="http://www.w3.org/2000/svg">
  <path d="M28.6662 121.333V125.333H36.6662V121.333H28.6662ZM103.333 121.333V125.333H111.333V121.333H103.333ZM36.6662 121.333V116.665H28.6662V121.333H36.6662ZM60.6662 92.6668H79.3329V84.6668H60.6662V92.6668ZM103.333 116.665V121.333H111.333V116.665H103.333ZM79.3329 92.6668C92.5879 92.6668 103.333 103.411 103.333 116.665H111.333C111.333 98.9921 97.0057 84.6668 79.3329 84.6668V92.6668ZM36.6662 116.665C36.6662 103.411 47.4111 92.6668 60.6662 92.6668V84.6668C42.9933 84.6668 28.6662 98.9921 28.6662 116.665H36.6662ZM69.9995 28.6667C57.4811 28.6667 47.3329 38.815 47.3329 51.3334H55.3329C55.3329 43.2332 61.8994 36.6667 69.9995 36.6667V28.6667ZM92.6662 51.3334C92.6662 38.815 82.518 28.6667 69.9995 28.6667V36.6667C78.0997 36.6667 84.6662 43.2332 84.6662 51.3334H92.6662ZM69.9995 74.0001C82.518 74.0001 92.6662 63.8519 92.6662 51.3334H84.6662C84.6662 59.4336 78.0997 66.0001 69.9995 66.0001V74.0001ZM69.9995 66.0001C61.8994 66.0001 55.3329 59.4336 55.3329 51.3334H47.3329C47.3329 63.8519 57.4811 74.0001 69.9995 74.0001V66.0001ZM69.9995 131.333C36.1261 131.333 8.6662 103.874 8.6662 70.0001H0.666199C0.666199 108.292 31.7078 139.333 69.9995 139.333V131.333ZM131.333 70.0001C131.333 103.874 103.873 131.333 69.9995 131.333V139.333C108.291 139.333 139.333 108.292 139.333 70.0001H131.333ZM69.9995 8.66675C103.873 8.66675 131.333 36.1266 131.333 70.0001H139.333C139.333 31.7083 108.291 0.666748 69.9995 0.666748V8.66675ZM69.9995 0.666748C31.7078 0.666748 0.666199 31.7083 0.666199 70.0001H8.6662C8.6662 36.1266 36.1261 8.66675 69.9995 8.66675V0.666748Z" fill="#97B2DF" />
</svg>
  