<svg fill="none" xmlns="http://www.w3.org/2000/svg" viewBox="0 0 223 161">
  <path fill-rule="evenodd" clip-rule="evenodd" d="M44 93.897V89.48L63.23 58h6.411v31.48h5.128v4.417h-5.128v7.693h-5.128v-7.693H44ZM64.513 64.41 49.128 89.48h15.385V64.41ZM94 58c8.974 0 15.385 10.256 15.385 23.077 0 12.82-6.411 20.513-15.385 20.513s-15.385-8.05-15.385-20.513C78.615 68.614 85.025 58 94 58Zm10.256 23.077c0-8.974-3.846-17.949-10.256-17.949s-10.256 8.975-10.256 17.949c0 8.974 3.846 15.385 10.256 15.385s10.256-6.41 10.256-15.385ZM113.231 93.897V89.48L132.462 58h6.41v31.48H144v4.417h-5.128v7.693h-5.128v-7.693h-20.513Zm20.513-29.487-15.385 25.07h15.385V64.41Z" fill="#19488E" />
  <path d="m155.637 13.627-.482.132.064.236.226.093.192-.461Zm4.839 2.007-.192.462.214.09.206-.107-.228-.445Zm6.25-3.212.353-.355-.258-.256-.324.166.229.445Zm4.032 4.016.435.247.189-.332-.271-.27-.353.355Zm-3.427 6.024-.435-.247-.121.213.094.227.462-.193Zm2.016 4.82-.461.192.094.226.236.064.131-.483ZM176 29.087l.5.018.013-.396-.382-.104-.131.482Zm-.202 5.824.135.481.352-.099.013-.365-.5-.017Zm-6.451 1.807-.135-.482-.237.067-.092.228.464.187Zm-2.016 5.02-.464-.186-.092.228.125.212.431-.254Zm3.427 5.823.361.346.262-.273-.192-.326-.431.253Zm-4.032 4.217-.257.43.343.204.275-.288-.361-.346Zm-6.049-3.614.257-.43-.221-.132-.236.104.2.458Zm-5.04 2.209-.201-.459-.218.096-.063.23.482.133ZM153.823 57v.5h.381l.101-.368-.482-.132Zm-5.444 0-.478.145.108.355h.37V57Zm-2.016-6.627.478-.145-.068-.226-.218-.09-.192.462Zm-4.839-2.008.192-.461-.225-.094-.213.12.246.435Zm-6.048 3.414-.353.354.268.268.331-.186-.246-.436Zm-4.234-4.217-.424-.264-.211.338.282.28.353-.354Zm3.629-5.823.424.264.143-.228-.113-.245-.454.209Zm-2.218-4.82.454-.208-.094-.205-.215-.065-.145.479ZM126 34.913h-.5v.371l.356.107.144-.478Zm0-5.623-.144-.479-.356.108v.371h.5Zm6.653-2.008.145.479.215-.065.094-.205-.454-.209Zm2.218-4.82.454.21.107-.233-.126-.223-.435.247Zm-3.427-6.023-.353-.354-.271.269.189.332.435-.247Zm4.032-4.016.234-.442-.326-.173-.261.26.353.355Zm6.048 3.212-.234.442.212.113.221-.096-.199-.459Zm4.637-2.008.199.46.205-.09.07-.21-.474-.16ZM148.379 7v-.5h-.36l-.114.341.474.159Zm5.444 0 .482-.132-.101-.368h-.381V7Zm8.467 24.699-.499.014.499-.014Zm-22.379 0 .5.014-.5-.014Zm15.534-17.61 4.839 2.007.383-.923-4.838-2.008-.384.923Zm5.259 1.99 6.25-3.213-.457-.889-6.25 3.213.457.89Zm5.669-3.303 4.032 4.016.706-.709-4.032-4.016-.706.709Zm3.95 3.415-3.427 6.024.869.494 3.428-6.024-.87-.494Zm-3.454 6.464 2.017 4.82.922-.387-2.016-4.82-.923.387Zm2.347 5.109 6.653 1.807.262-.965-6.653-1.807-.262.965Zm6.284 1.307-.201 5.823.999.035.202-5.823-1-.035Zm.164 5.36-6.452 1.806.27.963 6.451-1.807-.269-.963Zm-6.781 2.102-2.016 5.02.928.372 2.016-5.02-.928-.373Zm-1.983 5.46 3.427 5.823.862-.507-3.427-5.824-.862.508Zm3.497 5.224-4.033 4.217.723.69 4.032-4.216-.722-.691Zm-3.415 4.133-6.048-3.614-.513.858 6.048 3.614.513-.858Zm-6.505-3.643-5.041 2.209.402.916 5.04-2.21-.401-.915Zm-5.322 2.534-1.815 6.627.965.264 1.814-6.627-.964-.264Zm-1.332 6.259h-5.444v1h5.444v-1Zm-4.966.355-2.016-6.627-.956.291 2.016 6.627.956-.291Zm-2.302-6.943-4.839-2.008-.383.923 4.838 2.008.384-.923Zm-5.277-1.982-6.048 3.414.492.87 6.048-3.413-.492-.871Zm-5.449 3.495-4.234-4.217-.706.709 4.234 4.216.706-.708Zm-4.163-3.598 3.629-5.824-.848-.529-3.629 5.824.848.529Zm3.659-6.297-2.218-4.82-.908.419 2.218 4.819.908-.418Zm-2.527-5.089-6.654-2.008-.288.957 6.653 2.008.289-.957Zm-6.298-1.53V29.29h-1v5.623h1Zm-.356-5.143 6.654-2.008-.289-.958-6.653 2.009.288.957Zm6.963-2.278 2.218-4.82-.908-.417-2.218 4.82.908.417Zm2.199-5.275-3.428-6.024-.869.494 3.427 6.024.87-.494Zm-3.51-5.423 4.033-4.016-.706-.709-4.032 4.017.705.708Zm3.445-3.929 6.049 3.213.469-.883-6.049-3.213-.469.883Zm6.482 3.23 4.637-2.008-.397-.917-4.637 2.008.397.917Zm4.912-2.308 2.218-6.626-.948-.318-2.218 6.627.948.317Zm1.744-6.285h5.444v-1h-5.444v1Zm4.961-.368 1.815 6.627.964-.264-1.814-6.627-.965.264Zm-2.138 14.625c5.766 0 10.428 4.256 10.589 9.956l.999-.028c-.177-6.281-5.321-10.928-11.588-10.928v1Zm10.589 9.956c.164 5.85-4.67 10.53-10.589 10.53v1c6.441 0 11.77-5.104 11.588-11.558l-.999.028Zm-10.589 10.53c-5.932 0-10.955-4.69-10.791-10.53l-1-.028c-.181 6.466 5.362 11.558 11.791 11.558v-1Zm-10.791-10.53c.16-5.689 5.012-9.956 10.791-9.956v-1c-6.256 0-11.614 4.636-11.791 10.928l1 .028Z" fill="#97B2DF" />
  <path d="m43.71 107.301-.483.132.065.236.226.094.192-.462Zm3.87 1.607-.191.461.214.089.206-.106-.228-.444Zm5-2.571.354-.354-.258-.257-.324.167.229.444Zm3.227 3.213.434.247.189-.332-.27-.269-.353.354Zm-2.742 4.819-.435-.247-.122.214.095.226.462-.193Zm1.612 3.856-.46.193.093.225.236.064.131-.482ZM60 119.671l.5.017.013-.396-.382-.104-.131.483Zm-.161 4.658.135.482.352-.099.012-.365-.5-.018Zm-5.162 1.446-.135-.481-.237.066-.092.229.464.186Zm-1.612 4.016-.465-.186-.091.228.125.212.43-.254Zm2.742 4.659.36.345.262-.273-.192-.326-.43.254Zm-3.226 3.373-.257.429.342.205.276-.288-.361-.346Zm-4.84-2.891.257-.429-.22-.133-.237.104.2.458Zm-4.031 1.767-.201-.458-.219.096-.063.23.483.132ZM42.258 142v.5h.382l.1-.368-.482-.132Zm-4.355 0-.478.146.108.354h.37v-.5Zm-1.613-5.301.479-.146-.069-.226-.218-.09-.192.462Zm-3.87-1.607.191-.461-.225-.094-.212.12.245.435Zm-4.84 2.731-.352.355.268.267.33-.186-.245-.436Zm-3.386-3.373-.425-.265-.21.338.282.281.352-.354Zm2.903-4.659.424.265.143-.229-.113-.245-.454.209Zm-1.774-3.855.454-.209-.094-.205-.216-.065-.144.479ZM20 124.329h-.5v.372l.355.107.145-.479Zm0-4.498-.145-.478-.355.107v.371h.5Zm5.323-1.606.144.479.216-.065.094-.205-.454-.209Zm1.774-3.856.454.209.107-.233-.127-.223-.434.247Zm-2.742-4.819-.353-.354-.27.269.188.332.435-.247Zm3.226-3.213.234-.441-.326-.173-.261.26.353.354Zm4.838 2.571-.234.441.212.113.221-.096-.199-.458Zm3.71-1.607.199.459.204-.089.071-.211-.474-.159ZM37.903 102v-.5h-.36l-.114.341.474.159Zm4.355 0 .482-.132-.1-.368h-.382v.5Zm6.774 19.759-.5.014.5-.014Zm-17.903 0 .5.014-.5-.014Zm12.389-13.996 3.871 1.606.383-.923-3.87-1.607-.384.924Zm4.291 1.589 5-2.57-.457-.889-5 2.57.457.889Zm4.419-2.66 3.226 3.212.705-.708-3.225-3.213-.706.709Zm3.144 2.611-2.742 4.819.87.495 2.741-4.82-.87-.494Zm-2.769 5.259 1.613 3.856.923-.386-1.613-3.855-.923.385Zm1.943 4.145 5.323 1.446.262-.965-5.322-1.446-.263.965Zm4.954.946-.161 4.659 1 .035.16-4.659-.999-.035Zm.204 4.195-5.162 1.446.27.963 5.162-1.446-.27-.963Zm-5.49 1.741-1.614 4.016.928.373 1.613-4.017-.928-.372Zm-1.58 4.456 2.742 4.658.861-.507-2.742-4.658-.861.507Zm2.811 4.059-3.226 3.374.723.691 3.226-3.374-.723-.691Zm-2.608 3.29-4.839-2.891-.513.858 4.84 2.891.512-.858Zm-5.296-2.92-4.032 1.767.401.916 4.033-1.767-.402-.916Zm-4.314 2.093-1.451 5.301.964.264 1.452-5.301-.965-.264Zm-.969 4.933h-4.355v1h4.355v-1Zm-3.876.354-1.613-5.301-.957.291 1.613 5.302.957-.292Zm-1.9-5.617-3.871-1.606-.383.923 3.87 1.607.384-.924Zm-4.308-1.58-4.84 2.731.492.871 4.84-2.731-.492-.871Zm-4.24 2.812-3.388-3.373-.705.708 3.387 3.374.705-.709Zm-3.316-2.755 2.903-4.658-.849-.529-2.903 4.658.849.529Zm2.933-5.132-1.774-3.855-.909.418L26.643 130l.908-.418Zm-2.084-4.125-5.322-1.606-.29.957 5.323 1.606.29-.957Zm-4.967-1.128v-4.498h-1v4.498h1Zm-.355-4.019 5.322-1.606-.289-.958-5.323 1.607.29.957Zm5.632-1.876 1.774-3.856-.908-.418-1.775 3.856.909.418Zm1.754-4.312-2.742-4.819-.869.494 2.742 4.82.87-.495Zm-2.823-4.218 3.226-3.212-.706-.709-3.226 3.213.706.708Zm2.638-3.125 4.839 2.57.469-.883-4.839-2.57-.469.883Zm5.272 2.587 3.71-1.606-.398-.918-3.71 1.607.398.917Zm3.985-1.906 1.774-5.301-.948-.318-1.774 5.302.948.317Zm1.3-4.96h4.355v-1h-4.355v1Zm3.873-.368 1.451 5.301.965-.264-1.452-5.301-.964.264Zm-1.615 11.774c4.563 0 8.245 3.365 8.371 7.867l1-.028c-.143-5.083-4.307-8.839-9.37-8.839v1Zm8.371 7.867c.13 4.621-3.688 8.321-8.37 8.321v1c5.204 0 9.517-4.125 9.37-9.349l-1 .028Zm-8.37 8.321c-4.696 0-8.663-3.712-8.533-8.321l-1-.028c-.147 5.235 4.34 9.349 9.532 9.349v-1Zm-8.533-8.321c.126-4.491 3.957-7.867 8.532-7.867v-1c-5.052 0-9.389 3.745-9.532 8.839l1 .028Z" fill="#97B2DF" />
  <path d="m132.338 113.062-.452.214.104.221.239.053.109-.488Zm5.113 1.137-.108.488.226.051.185-.141-.303-.398Zm5.598-4.249.286-.41-.299-.208-.29.22.303.398Zm4.668 3.255.471.168.128-.36-.313-.219-.286.411Zm-2.329 6.527-.471-.168-.083.232.133.207.421-.271Zm2.822 4.396-.421.27.132.206.244.022.045-.498Zm6.866.625.495-.07-.055-.392-.395-.036-.045.498Zm.813 5.77.216.45.33-.158-.051-.362-.495.07Zm-6.04 2.9-.217-.451-.222.107-.05.241.489.103Zm-1.114 5.294-.489-.103-.051.24.16.187.38-.324Zm4.387 5.139.416.278.209-.315-.245-.287-.38.324Zm-3.239 4.853-.178.467.372.142.222-.331-.416-.278Zm-6.584-2.509.178-.467-.241-.092-.214.143.277.416Zm-4.58 3.051-.278-.417-.198.133-.022.237.498.047Zm-.637 6.84.087.493.376-.066.035-.38-.498-.047Zm-5.361.946-.445.226.167.33.365-.064-.087-.492Zm-3.136-6.176.446-.226-.107-.211-.23-.051-.109.488Zm-5.114-1.137.109-.488-.238-.053-.188.155.317.386Zm-5.363 4.412-.286.41.311.217.292-.241-.317-.386Zm-4.902-3.418-.464-.187-.149.37.327.227.286-.41Zm2.563-6.365.463.187.101-.25-.153-.222-.411.285Zm-3.021-4.361.411-.284-.129-.186-.223-.026-.059.496Zm-6.901-.822-.493.087.065.366.369.044.059-.497Zm-.977-5.537-.225-.446-.331.167.064.366.492-.087Zm6.204-3.133.225.446.201-.101.058-.218-.484-.127Zm1.347-5.131.484.127.065-.248-.164-.198-.385.319ZM109 120.032l-.409-.288-.22.312.244.294.385-.318Zm3.273-4.656.155-.475-.351-.114-.213.302.409.287Zm6.515 2.114-.155.476.229.074.201-.133-.275-.417Zm4.218-2.783.275.418.186-.123.033-.221-.494-.074Zm1.033-6.911-.087-.492-.354.062-.053.356.494.074Zm5.361-.945.452-.214-.163-.345-.376.067.087.492Zm2.829 6.699 5.114 1.137.217-.976-5.114-1.137-.217.976Zm5.525 1.047 5.597-4.249-.605-.796-5.597 4.249.605.796Zm5.009-4.237 4.668 3.255.572-.821-4.668-3.254-.572.82Zm4.483 2.677-2.329 6.527.942.336 2.329-6.527-.942-.336Zm-2.279 6.966 2.822 4.395.842-.54-2.823-4.396-.841.541Zm3.198 4.623 6.866.625.09-.996-6.866-.625-.09.996Zm6.416.197.813 5.769.99-.139-.813-5.77-.99.14Zm1.091 5.249-6.04 2.9.433.901 6.04-2.9-.433-.901Zm-6.312 3.248-1.114 5.294.978.206 1.114-5.294-.978-.206Zm-1.005 5.721 4.386 5.14.761-.649-4.387-5.14-.76.649Zm4.351 4.538-3.239 4.853.832.555 3.239-4.853-.832-.555Zm-2.645 4.663-6.584-2.509-.356.934 6.584 2.509.356-.934Zm-7.039-2.458-4.581 3.05.555.833 4.58-3.051-.554-.832Zm-4.801 3.42-.637 6.841.996.093.636-6.841-.995-.093Zm-.226 6.395-5.36.945.173.985 5.361-.945-.174-.985Zm-4.828 1.211-3.136-6.175-.892.452 3.137 6.176.891-.453Zm-3.473-6.437-5.114-1.137-.217.976 5.114 1.137.217-.976Zm-5.54-1.035-5.364 4.412.635.772 5.364-4.412-.635-.772Zm-4.76 4.388-4.902-3.418-.572.82 4.902 3.418.572-.82Zm-4.724-2.821 2.562-6.365-.927-.374-2.563 6.365.928.374Zm2.51-6.837-3.021-4.36-.822.569 3.021 4.361.822-.57Zm-3.373-4.572-6.901-.822-.118.993 6.9.822.119-.993Zm-6.468-.413-.976-5.537-.985.174.976 5.537.985-.174Zm-1.243-5.004 6.203-3.133-.45-.892-6.204 3.133.451.892Zm6.462-3.452 1.347-5.131-.967-.254-1.348 5.131.968.254Zm1.248-5.577-4.421-5.337-.77.637 4.421 5.338.77-.638Zm-4.397-4.731 3.273-4.655-.818-.575-3.273 4.655.818.575Zm2.71-4.467 6.514 2.114.309-.952-6.514-2.113-.309.951Zm6.944 2.055 4.218-2.782-.551-.835-4.218 2.783.551.834Zm4.437-3.126 1.034-6.911-.989-.148-1.034 6.911.989.148Zm.626-6.492 5.361-.946-.174-.984-5.361.945.174.985Zm4.822-1.224 2.938 6.211.904-.428-2.938-6.211-.904.428Zm.509 13.484c6.527-1.151 12.75 3.207 13.901 9.734l.985-.173c-1.247-7.071-7.989-11.792-15.06-10.546l.174.985Zm13.901 9.734c1.151 6.527-3.207 12.751-9.734 13.902l.174.984c7.071-1.246 11.792-7.989 10.545-15.059l-.985.173Zm-9.734 13.902c-6.526 1.151-12.75-3.208-13.901-9.734l-.985.173c1.247 7.071 7.989 11.792 15.06 10.545l-.174-.984Zm-13.901-9.734c-1.151-6.527 3.207-12.751 9.734-13.902l-.174-.985c-7.07 1.247-11.792 7.99-10.545 15.06l.985-.173Z" fill="#97B2DF" />
  <path d="m25.703 59.775-.498.047.023.243.206.132.269-.422Zm3.092 1.973-.27.421.196.125.221-.069-.147-.477Zm4.699-1.455.409-.288-.21-.298-.347.108.148.478Zm2.291 3.258.385.32.244-.295-.22-.312-.409.287Zm-3.095 3.736-.385-.319-.157.19.054.24.488-.11Zm.804 3.568-.487.11.053.238.221.104.213-.452Zm4.367 2.054.49.104.081-.387-.358-.17-.213.453Zm-.847 3.99.05.498.363-.036.076-.358-.489-.104Zm-4.667.462-.05-.498-.244.025-.13.209.424.264Zm-2 3.215-.425-.264-.13.21.087.23.468-.175Zm1.655 4.431.296.403.305-.223-.133-.355-.468.175Zm-3.292 2.417-.328.378.302.261.322-.236-.296-.403Zm-3.73-3.227.326-.378-.194-.168-.25.06.117.486Zm-3.744.91-.118-.485-.232.056-.102.216.452.213Zm-2.056 4.348-.087.492.376.067.163-.345-.452-.214Zm-3.753-.662-.496.06.045.368.364.065.087-.493Zm-.584-4.813.496-.06-.028-.234-.2-.127-.268.421Zm-3.092-1.972.27-.422-.206-.131-.23.081.166.472Zm-4.584 1.618-.41.287.219.31.357-.126-.166-.471ZM4.76 80.204l-.372-.334-.266.296.229.326.409-.288Zm3.21-3.573.371.334.18-.2-.068-.261-.484.127Zm-.944-3.592.484-.127-.057-.218-.201-.101-.226.446Zm-4.342-2.193-.492-.087-.065.366.332.167.225-.446Zm.683-3.876-.059-.496-.369.043-.064.366.492.087Zm4.831-.575.06.496.223-.027.128-.185-.411-.284Zm2.115-3.053.41.285.147-.211-.087-.242-.47.168Zm-1.63-4.57-.287-.41-.313.219.128.36.471-.169Zm3.267-2.278.308-.394-.291-.227-.303.21.286.411Zm3.779 2.95-.308.394.19.148.234-.055-.116-.487Zm3.44-.82.117.486.217-.052.106-.196-.44-.239Zm2.335-4.299.087-.492-.355-.063-.171.316.439.239Zm3.753.662.498-.047-.036-.38-.376-.066-.086.493Zm.176 5.21 3.092 1.972.538-.843-3.092-1.972-.538.843Zm3.508 2.028 4.7-1.455-.296-.955-4.7 1.455.296.955Zm4.143-1.645 2.291 3.259.818-.575-2.291-3.259-.818.575Zm2.315 2.652-3.095 3.737.77.637 3.095-3.736-.77-.638Zm-3.198 4.165.805 3.568.975-.22-.804-3.568-.976.22Zm1.08 3.91 4.366 2.055.426-.905-4.367-2.055-.426.905Zm4.09 1.498-.847 3.99.978.208.847-3.99-.978-.208Zm-.407 3.597-4.667.461.098.995 4.667-.461-.098-.995Zm-5.043.695-2 3.215.85.529 2-3.216-.85-.528ZM29.88 80.75l1.654 4.431.937-.35-1.655-4.43-.936.35Zm1.827 3.853-3.292 2.417.591.806 3.293-2.416-.592-.807Zm-2.67 2.442-3.73-3.227-.654.757 3.73 3.226.655-.756Zm-4.175-3.335-3.743.91.236.972 3.744-.91-.237-.972Zm-4.077 1.183-2.056 4.347.904.428 2.056-4.348-.904-.427Zm-1.517 4.069-3.753-.662-.173.985 3.752.661.174-.984Zm-3.343-.23-.585-4.813-.992.12.584 4.813.993-.12Zm-.812-5.174-3.092-1.973-.537.843 3.091 1.973.538-.843Zm-3.527-2.023-4.584 1.618.332.943 4.585-1.618-.333-.943Zm-4.01 1.802L5.17 79.917l-.818.575 2.406 3.421.818-.575Zm-2.442-2.8 3.21-3.573-.745-.668-3.21 3.573.745.668Zm3.321-4.034-.943-3.592-.967.254.943 3.592.967-.254Zm-1.201-3.911L2.91 70.4l-.45.892 4.342 2.193.45-.892Zm-4.076-1.66.684-3.876-.985-.174-.683 3.876.984.174Zm.25-3.466 4.831-.576-.118-.993-4.83.576.118.993Zm5.183-.788 2.115-3.052-.822-.57-2.115 3.053.822.57Zm2.175-3.505-1.631-4.57-.942.337 1.63 4.569.942-.336Zm-1.816-3.991 3.268-2.279-.572-.82-3.268 2.278.572.82Zm2.674-2.295 3.78 2.95.615-.788-3.78-2.95-.615.788Zm4.203 3.043 3.44-.821-.231-.973-3.441.82.232.974Zm3.764-1.069 2.334-4.298-.878-.478-2.335 4.299.88.477Zm1.808-4.045 3.753.662.173-.985-3.752-.661-.174.984Zm3.342.216.445 4.789.996-.093-.445-4.789-.996.093Zm-2.77 9.126a8.25 8.25 0 0 1 6.692 9.557l.984.173a9.25 9.25 0 0 0-7.503-10.715l-.174.985Zm6.692 9.557a8.25 8.25 0 0 1-9.558 6.692l-.173.985a9.25 9.25 0 0 0 10.715-7.504l-.984-.173Zm-9.558 6.692a8.25 8.25 0 0 1-6.692-9.557l-.985-.174a9.25 9.25 0 0 0 7.504 10.716l.173-.985Zm-6.692-9.557a8.25 8.25 0 0 1 9.557-6.692l.174-.985a9.25 9.25 0 0 0-10.716 7.503l.985.174Z" fill="#97B2DF" />
  <path d="m71.203 20.037-.453.214.105.221.239.053.109-.488Zm3.068.683-.109.488.227.05.184-.14-.302-.398Zm3.358-2.55.286-.41-.298-.208-.29.22.302.398Zm2.801 1.953.471.168.128-.36-.313-.218-.286.41Zm-1.397 3.916-.471-.168-.083.232.133.207.42-.27Zm1.693 2.638-.42.27.131.206.244.022.045-.498Zm4.12.375.495-.07-.055-.392-.395-.036-.045.498Zm.487 3.462.217.45.33-.158-.052-.362-.495.07Zm-3.624 1.74-.216-.451-.222.107-.051.24.49.104Zm-.668 3.176-.49-.103-.05.24.16.188.38-.325Zm2.632 3.084.416.277.21-.314-.246-.288-.38.325Zm-1.943 2.912-.178.467.372.142.222-.332-.416-.277Zm-3.95-1.506.177-.467-.24-.092-.215.143.277.416Zm-2.749 1.83-.277-.416-.199.132-.022.238.498.046Zm-.382 4.105.087.492.376-.066.035-.38-.498-.046Zm-3.216.567-.446.226.168.33.365-.064-.087-.492Zm-1.882-3.705.446-.227-.107-.21-.23-.052-.109.489Zm-3.068-.683.108-.488-.238-.053-.188.155.318.386Zm-3.218 2.648-.286.41.31.216.293-.24-.317-.386Zm-2.941-2.051-.464-.187-.149.37.327.227.286-.41Zm1.537-3.82.464.188.1-.25-.153-.222-.41.285Zm-1.812-2.616.41-.284-.128-.186-.223-.026-.06.496Zm-4.14-.493-.493.087.064.366.369.044.06-.497Zm-.587-3.322-.225-.447-.332.168.065.366.492-.087Zm3.722-1.88.226.446.2-.101.058-.218-.484-.127Zm.809-3.079.483.127.066-.248-.164-.198-.385.32ZM57.2 24.22l-.41-.288-.219.313.244.294.385-.32Zm1.964-2.793.154-.476-.35-.114-.213.302.409.288Zm3.909 1.268-.155.476.23.074.2-.133-.275-.417Zm2.53-1.67.276.418.186-.123.033-.22-.495-.075Zm.62-4.146-.086-.493-.355.063-.053.356.494.074Zm3.217-.567.452-.214-.163-.345-.376.066.087.493Zm1.654 4.214 3.068.683.217-.977-3.068-.682-.217.976Zm3.48.593 3.358-2.55-.605-.796-3.358 2.55.604.796Zm2.77-2.538 2.8 1.953.572-.82-2.8-1.953-.573.82Zm2.615 1.375-1.397 3.916.942.337L80.9 20.29l-.942-.336Zm-1.347 4.355 1.693 2.637.842-.54-1.694-2.638-.841.54Zm2.069 2.865 4.12.375.09-.996-4.12-.375-.09.996Zm3.67-.054.487 3.462.99-.14-.487-3.461-.99.14Zm.766 2.942-3.624 1.74.433.901 3.624-1.74-.433-.901ZM81.22 32.15l-.668 3.176.978.206.669-3.176-.979-.206Zm-.56 3.604 2.633 3.083.76-.649-2.632-3.084-.76.65Zm2.597 2.481-1.943 2.912.832.555 1.943-2.912-.832-.555Zm-1.35 2.722-3.95-1.505-.356.934 3.95 1.506.357-.935Zm-4.405-1.454-2.748 1.83.554.832 2.748-1.83-.554-.832Zm-2.969 2.2-.382 4.105.996.092.382-4.104-.996-.093Zm.03 3.658-3.217.568.174.984 3.216-.567-.173-.985Zm-2.684.834-1.882-3.706-.892.453 1.882 3.705.892-.452Zm-2.22-3.968-3.068-.682-.217.976 3.069.683.217-.977Zm-3.494-.58-3.218 2.647.635.773L66.8 42.42l-.635-.772Zm-2.614 2.623-2.942-2.05-.571.82 2.94 2.05.573-.82Zm-2.764-1.453 1.538-3.82-.928-.373-1.537 3.82.927.373Zm1.485-4.29L60.46 35.91l-.822.57 1.812 2.616.822-.57Zm-2.164-2.83-4.14-.492-.12.992 4.141.494.119-.993Zm-3.707-.083-.586-3.322-.985.174.586 3.322.985-.174Zm-.853-2.789 3.722-1.88-.451-.892-3.722 1.88.45.892Zm3.98-2.199.808-3.079-.967-.254-.808 3.08.967.253Zm.71-3.525L57.585 23.9l-.77.638 2.653 3.202.77-.638Zm-2.63-2.596 1.965-2.793-.818-.575-1.964 2.793.818.575Zm1.402-2.605 3.908 1.269.309-.952-3.909-1.268-.308.951Zm4.338 1.21 2.53-1.67-.55-.834-2.53 1.67.55.834Zm2.75-2.013.62-4.146-.99-.148-.62 4.146.99.148Zm.212-3.728 3.217-.567-.174-.985-3.216.567.173.985Zm2.678-.846 1.763 3.727.903-.428-1.762-3.726-.904.427Zm.52 8.203a7 7 0 0 1 8.11 5.678l.985-.174a8 8 0 0 0-9.268-6.49l.174.986Zm8.11 5.678a7 7 0 0 1-5.678 8.109l.174.985a8 8 0 0 0 6.489-9.268l-.985.174Zm-5.678 8.109a7 7 0 0 1-8.11-5.678l-.984.173a8 8 0 0 0 9.268 6.49l-.174-.985Zm-8.11-5.678a7 7 0 0 1 5.679-8.11l-.174-.984a8 8 0 0 0-6.49 9.267l.986-.173Z" fill="#97B2DF" />
  <path d="m30.337 10.062-.451.214.104.22.239.054.108-.488Zm5.114 1.137-.108.488.226.05.185-.14-.303-.398Zm5.598-4.25.285-.41-.298-.207-.29.22.303.398Zm4.668 3.256.47.168.13-.36-.314-.219-.286.41Zm-2.33 6.527-.47-.168-.083.232.133.207.42-.27Zm2.823 4.396-.42.27.131.206.244.022.045-.498Zm6.866.625.495-.07-.055-.392-.395-.036-.045.498Zm.813 5.77.216.45.33-.158-.051-.362-.495.07Zm-6.04 2.9-.217-.451-.222.107-.05.24.489.104Zm-1.114 5.294-.49-.103-.05.24.16.187.38-.324Zm4.387 5.14.416.277.21-.315-.246-.287-.38.324Zm-3.24 4.852-.177.467.372.142.222-.331-.416-.278ZM41.3 43.2l.178-.467-.241-.092-.214.143.277.416Zm-4.58 3.05-.278-.416-.198.133-.022.237.498.047Zm-.637 6.842.087.492.376-.066.035-.38-.498-.046Zm-5.36.945-.446.226.167.33.365-.064-.087-.492Zm-3.137-6.176.446-.226-.107-.21-.23-.052-.109.488Zm-5.114-1.137.109-.488-.238-.053-.188.154.317.387Zm-5.363 4.412-.286.41.31.217.293-.241-.317-.386Zm-4.902-3.418-.464-.187-.149.37.327.227.286-.41Zm2.563-6.365.463.187.101-.25-.153-.221-.411.284Zm-3.021-4.36.41-.285-.128-.186-.223-.026-.06.496Zm-6.901-.823-.493.087.065.366.369.044.059-.497Zm-.977-5.537-.225-.446-.331.167.064.366.492-.087Zm6.204-3.133.225.446.201-.101.057-.218-.483-.127Zm1.347-5.131.484.127.065-.248-.164-.198-.385.319ZM7 17.032l-.41-.288-.219.312.244.294.385-.319Zm3.273-4.656.155-.475-.351-.114-.213.302.41.287Zm6.515 2.114-.155.476.23.074.2-.133-.275-.417Zm4.218-2.783.275.418.186-.123.033-.22-.494-.075Zm1.033-6.91-.087-.493-.354.062-.053.356.494.074Zm5.36-.946.453-.214-.163-.345-.376.067.087.492Zm2.83 6.699 5.114 1.137.217-.976-5.114-1.137-.217.976Zm5.525 1.047 5.597-4.249-.605-.796L35.15 10.8l.605.796Zm5.009-4.237 4.668 3.255.572-.82-4.669-3.255-.571.82Zm4.483 2.677-2.33 6.527.943.336 2.329-6.527-.942-.336Zm-2.28 6.966 2.823 4.395.842-.54-2.823-4.396-.841.54Zm3.199 4.623 6.866.625.09-.996-6.866-.625-.09.996Zm6.416.197.813 5.77.99-.14-.813-5.77-.99.14Zm1.091 5.249-6.04 2.9.433.901 6.04-2.9-.433-.901ZM47.36 30.32l-1.114 5.294.978.206 1.114-5.294-.978-.206Zm-1.005 5.721 4.386 5.14.761-.65-4.387-5.139-.76.65Zm4.35 4.538-3.238 4.853.832.555 3.239-4.853-.832-.555Zm-2.644 4.663-6.584-2.51-.356.935 6.584 2.51.356-.935Zm-7.04-2.458-4.58 3.05.555.833 4.58-3.05-.554-.833Zm-4.8 3.42-.637 6.841.996.093.636-6.841-.995-.093Zm-.225 6.395-5.361.945.173.985 5.361-.945-.173-.985Zm-4.829 1.211-3.136-6.175-.891.452 3.136 6.176.891-.453Zm-3.473-6.437-5.114-1.137-.217.976 5.114 1.137.217-.976Zm-5.54-1.035L16.79 50.75l.635.772 5.364-4.412-.635-.773Zm-4.76 4.388-4.902-3.418-.572.82 4.902 3.418.572-.82Zm-4.724-2.821 2.562-6.365-.927-.374-2.563 6.365.928.374Zm2.51-6.837-3.021-4.36-.822.569 3.02 4.36.823-.569Zm-3.373-4.572-6.901-.823-.118.993 6.9.823.119-.993Zm-6.468-.413-.976-5.537-.985.174.976 5.537.985-.174ZM4.096 31.08l6.203-3.133-.45-.892-6.204 3.133.45.892Zm6.461-3.452 1.348-5.131-.967-.254-1.348 5.131.967.254Zm1.25-5.577-4.422-5.337-.77.637 4.421 5.338.77-.638Zm-4.398-4.73 3.273-4.656-.818-.575-3.273 4.655.818.575Zm2.71-4.468 6.514 2.114.309-.952-6.514-2.113-.309.95Zm6.944 2.055 4.218-2.782-.55-.835-4.219 2.783.551.834Zm4.437-3.126 1.034-6.91-.99-.149-1.033 6.911.99.148Zm.626-6.492 5.36-.946-.173-.984-5.36.945.173.985Zm4.822-1.224 2.938 6.21.904-.427-2.938-6.21-.904.427Zm.509 13.484c6.527-1.15 12.75 3.207 13.901 9.734l.985-.173c-1.247-7.071-7.99-11.792-15.06-10.546l.174.985Zm13.901 9.734c1.151 6.527-3.207 12.75-9.734 13.902l.174.984c7.07-1.246 11.792-7.989 10.545-15.06l-.985.174Zm-9.734 13.902c-6.526 1.15-12.75-3.208-13.901-9.734l-.985.173c1.247 7.071 7.99 11.792 15.06 10.546l-.174-.985ZM17.723 31.45c-1.15-6.527 3.207-12.75 9.734-13.902l-.174-.985c-7.07 1.247-11.792 7.99-10.545 15.06l.985-.173Z" fill="#97B2DF" />
  <path d="m191.456 58.94-.483.132.065.236.226.094.192-.462Zm7.258 3.012-.192.462.214.088.206-.105-.228-.445Zm9.375-4.82.353-.354-.258-.256-.324.166.229.444Zm6.048 6.025.435.247.189-.332-.271-.27-.353.355Zm-5.141 9.036-.435-.248-.121.214.095.227.461-.193Zm3.024 7.229-.461.193.094.225.236.064.131-.482Zm9.98 2.71.5.018.013-.396-.382-.104-.131.482Zm-.302 8.736.134.48.353-.098.012-.365-.499-.017Zm-9.678 2.71-.135-.481-.237.066-.092.229.464.186Zm-3.024 7.53-.464-.186-.092.228.125.212.431-.254Zm5.141 8.735.361.346.262-.273-.192-.326-.431.253Zm-6.048 6.326-.257.429.343.204.275-.288-.361-.345Zm-9.073-5.422.257-.429-.222-.132-.236.103.201.458Zm-7.56 3.313-.201-.458-.219.096-.063.23.483.132Zm-2.722 9.94v.5h.381l.101-.368-.482-.132Zm-8.165 0-.479.146.108.354h.371v-.5Zm-3.025-9.94.479-.145-.069-.226-.218-.091-.192.462Zm-7.258-3.012.192-.462-.225-.093-.212.12.245.435Zm-9.072 5.121-.353.354.268.267.33-.186-.245-.435Zm-6.351-6.326-.424-.264-.211.338.282.281.353-.355Zm5.443-8.735.425.265.142-.229-.112-.245-.455.209Zm-3.326-7.229.454-.209-.094-.204-.216-.065-.144.478ZM147 90.868h-.5v.37l.356.108.144-.478Zm0-8.434-.144-.479-.356.107v.372h.5Zm9.98-3.012.144.478.216-.065.094-.204-.454-.21Zm3.326-7.23.455.21.107-.233-.127-.224-.435.248Zm-5.141-9.035-.353-.355-.27.27.189.332.434-.247Zm6.049-6.024.234-.442-.326-.173-.261.26.353.355Zm9.072 4.819-.234.441.212.113.221-.095-.199-.46Zm6.956-3.012.199.459.204-.089.071-.212-.474-.158Zm3.327-9.94v-.5h-.36l-.115.341.475.159Zm8.165 0 .482-.132-.101-.368h-.381v.5Zm2.53 10.402 7.258 3.012.383-.924-7.258-3.012-.383.924Zm7.678 2.995 9.375-4.82-.457-.89-9.375 4.82.457.89Zm8.794-4.91 6.048 6.024.706-.709-6.048-6.024-.706.709Zm5.967 5.422-5.142 9.036.87.495 5.141-9.036-.869-.495Zm-5.168 9.477 3.024 7.229.922-.386-3.024-7.23-.922.387Zm3.354 7.518 9.98 2.711.262-.965-9.98-2.71-.262.964Zm9.611 2.211-.302 8.735.999.035.303-8.735-1-.035Zm.063 8.271-9.678 2.71.27.964 9.677-2.711-.269-.963Zm-10.007 3.006-3.024 7.53.928.373 3.024-7.53-.928-.373Zm-2.991 7.97 5.141 8.735.862-.507-5.141-8.735-.862.507Zm5.211 8.136-6.049 6.325.723.691 6.048-6.325-.722-.691Zm-5.431 6.241-9.072-5.421-.513.858 9.072 5.422.513-.859Zm-9.53-5.45-7.56 3.313.401.916 7.561-3.313-.402-.916Zm-7.842 3.639-2.721 9.94.964.264 2.722-9.94-.965-.264Zm-2.239 9.572h-8.165v1h8.165v-1Zm-7.687.354-3.024-9.939-.957.291 3.024 9.94.957-.292Zm-3.311-10.256-7.258-3.012-.383.924 7.258 3.012.383-.924Zm-7.695-2.985-9.073 5.12.491.871 9.073-5.12-.491-.871Zm-8.474 5.201-6.351-6.325-.706.709 6.351 6.325.706-.709Zm-6.28-5.706 5.444-8.735-.849-.529-5.443 8.735.848.529Zm5.474-9.209-3.327-7.228-.908.417 3.326 7.229.909-.418Zm-3.637-7.498-9.98-3.012-.288.957 9.979 3.012.289-.957Zm-9.624-2.533v-8.434h-1v8.434h1Zm-.356-7.956 9.98-3.012-.289-.957-9.979 3.012.288.957Zm10.29-3.281 3.327-7.23-.909-.417-3.326 7.229.908.418Zm3.307-7.686L155.6 62.91l-.869.495 5.141 9.036.869-.495Zm-5.223-8.434 6.049-6.024-.706-.709-6.049 6.024.706.709Zm5.461-5.937 9.073 4.82.469-.884-9.073-4.819-.469.883Zm9.506 4.837 6.956-3.012-.398-.918-6.955 3.012.397.918Zm7.231-3.313 3.327-9.94-.949-.317-3.326 9.94.948.317Zm2.853-9.598h8.165v-1h-8.165v1Zm7.683-.368 2.721 9.94.965-.264-2.722-9.94-.964.264ZM185.25 69c10.079 0 18.25 8.17 18.25 18.25h1c0-10.632-8.619-19.25-19.25-19.25v1Zm18.25 18.25c0 10.08-8.171 18.25-18.25 18.25v1c10.631 0 19.25-8.618 19.25-19.25h-1Zm-18.25 18.25c-10.079 0-18.25-8.17-18.25-18.25h-1c0 10.632 8.619 19.25 19.25 19.25v-1ZM167 87.25C167 77.17 175.171 69 185.25 69v-1C174.619 68 166 76.618 166 87.25h1Z" fill="#97B2DF" />
</svg>