<svg width="35" height="40" fill="none" xmlns="http://www.w3.org/2000/svg">
  <path d="M33.559 9.137h1.015v-.406l-.304-.305-.711.711Zm-8.122-8.122.71-.71L25.844 0h-.406v1.015ZM2.087 13.198V3.756H.057v9.442h2.03Zm30.457-4.06v4.06h2.03v-4.06h-2.03ZM3.813 2.03h21.624V0H3.813v2.03Zm20.913-.304 8.122 8.122 1.422-1.422L26.148.305l-1.422 1.42Zm-22.64 2.03c0-.913.712-1.726 1.727-1.726V0A3.748 3.748 0 0 0 .056 3.756h2.03ZM.057 32.183v4.06h2.03v-4.06H.057ZM3.813 40h27.106v-2.03H3.813V40Zm30.761-3.756v-4.061h-2.03v4.06h2.03ZM30.818 40a3.748 3.748 0 0 0 3.756-3.756h-2.03c0 .913-.711 1.725-1.726 1.725V40ZM.056 36.244A3.748 3.748 0 0 0 3.813 40v-2.03a1.711 1.711 0 0 1-1.726-1.726H.057Z" fill="#737A92"/>
</svg>
