<svg width="27" height="27" fill="none" xmlns="http://www.w3.org/2000/svg">
  <path d="m8.5 6.833.707-.707a1 1 0 0 0-1.414 0l.707.707Zm-5-4h20v-2h-20v2Zm20.667.667v20h2v-20h-2ZM23.5 24.167h-20v2h20v-2ZM2.833 23.5v-20h-2v20h2Zm.667.667a.667.667 0 0 1-.667-.667h-2A2.667 2.667 0 0 0 3.5 26.167v-2Zm20.667-.667a.667.667 0 0 1-.667.667v2a2.667 2.667 0 0 0 2.667-2.667h-2ZM23.5 2.833c.368 0 .667.299.667.667h2A2.667 2.667 0 0 0 23.5.833v2Zm-20-2A2.667 2.667 0 0 0 .833 3.5h2c0-.368.299-.667.667-.667v-2ZM1.833 19.5h23.334v-2H1.833v2Zm.707-5.293L9.207 7.54 7.793 6.126l-6.667 6.667 1.414 1.414ZM7.793 7.54l11.666 11.667 1.415-1.414L9.207 6.126 7.793 7.54ZM18.5 9.167a.667.667 0 0 1-.667-.667h-2a2.667 2.667 0 0 0 2.667 2.667v-2Zm.667-.667a.667.667 0 0 1-.667.667v2A2.667 2.667 0 0 0 21.167 8.5h-2Zm-.667-.667c.368 0 .667.299.667.667h2A2.667 2.667 0 0 0 18.5 5.833v2Zm0-2A2.667 2.667 0 0 0 15.833 8.5h2c0-.368.299-.667.667-.667v-2Z" fill="#737A92"/>
</svg>
