<svg width="50" height="42" fill="none" xmlns="http://www.w3.org/2000/svg">
  <path d="M5.118 21.118 25 41l19.882-19.882a11.785 11.785 0 0 0 3.451-8.333C48.333 6.276 43.057 1 36.548 1a11.785 11.785 0 0 0-8.333 3.452L25 7.667l-3.215-3.215A11.785 11.785 0 0 0 13.452 1C6.943 1 1.667 6.276 1.667 12.785c0 3.126 1.241 6.123 3.451 8.333Z" fill="#737A92"/>
  <path d="m25 41-.707.707a1 1 0 0 0 1.414 0L25 41ZM5.118 21.118l-.707.708.707-.708ZM21.785 4.452l-.707.707.707-.707ZM25 7.667l-.707.707a1 1 0 0 0 1.414 0L25 7.667Zm3.215-3.215-.707-.707.707.707Zm-2.508 35.84L5.826 20.413 4.41 21.825l19.882 19.881 1.414-1.414Zm18.467-19.88-19.881 19.88 1.414 1.415L45.59 21.826l-1.415-1.415ZM21.078 5.158l3.215 3.215 1.414-1.414-3.215-3.215-1.414 1.414Zm4.63 3.215 3.214-3.215-1.414-1.414-3.215 3.215 1.414 1.414ZM36.547 0c-3.39 0-6.643 1.347-9.04 3.745l1.414 1.414A10.785 10.785 0 0 1 36.548 2V0Zm10.785 12.785c0 2.86-1.136 5.604-3.159 7.626l1.415 1.415a12.785 12.785 0 0 0 3.744-9.04h-2Zm2 0C49.333 5.725 43.61 0 36.548 0v2c5.957 0 10.785 4.829 10.785 10.785h2ZM13.452 2c2.86 0 5.603 1.136 7.626 3.159l1.414-1.414A12.785 12.785 0 0 0 13.452 0v2ZM2.667 12.785C2.667 6.83 7.495 2 13.452 2V0C6.39 0 .667 5.724.667 12.785h2Zm3.159 7.626a10.785 10.785 0 0 1-3.16-7.626h-2c0 3.39 1.348 6.643 3.745 9.04l1.415-1.414Z" fill="#737A92"/>
</svg>
