<svg width="49" height="42" fill="none" xmlns="http://www.w3.org/2000/svg">
  <path d="m24.333 41-.707.707a1 1 0 0 0 1.414 0L24.333 41ZM4.452 21.118l-.707.708.707-.708ZM21.118 4.452l-.707.707.707-.707Zm3.215 3.215-.707.707a1 1 0 0 0 1.414 0l-.707-.707Zm3.215-3.215-.707-.707.707.707Zm-2.508 35.84L5.16 20.413l-1.414 1.414 19.881 19.881 1.414-1.414Zm18.468-19.88-19.882 19.88 1.414 1.415 19.882-19.881-1.414-1.415ZM20.41 5.158l3.215 3.215L25.04 6.96l-3.214-3.215-1.415 1.414Zm4.63 3.215 3.214-3.215-1.414-1.414-3.215 3.215 1.414 1.414ZM35.88 0c-3.39 0-6.642 1.347-9.04 3.745l1.414 1.414A10.785 10.785 0 0 1 35.882 2V0Zm10.786 12.785c0 2.86-1.137 5.604-3.16 7.626l1.415 1.415a12.785 12.785 0 0 0 3.745-9.04h-2Zm2 0C48.667 5.725 42.943 0 35.882 0v2c5.956 0 10.785 4.829 10.785 10.785h2ZM12.785 2c2.86 0 5.604 1.136 7.626 3.159l1.415-1.414A12.785 12.785 0 0 0 12.786 0v2ZM2 12.785C2 6.83 6.829 2 12.785 2V0C5.725 0 0 5.724 0 12.785h2Zm3.159 7.626A10.785 10.785 0 0 1 2 12.785H0c0 3.39 1.347 6.643 3.745 9.04l1.414-1.414Z" fill="#737A92"/>
</svg>
