<svg xmlns="http://www.w3.org/2000/svg" width="26" height="26" fill="none"><path fill="#737A92" d="M25 1l.92.394A1 1 0 0024.605.08L25 1zM1 11.286l-.394-.92a1 1 0 00-.12 1.777L1 11.286zM14.714 25l-.857.515a1 1 0 001.776-.121L14.714 25zM24.606.08l-24 10.287.788 1.838 24-10.286-.788-1.838zM.486 12.144l8.57 5.143 1.03-1.715-8.572-5.143-1.028 1.715zm8.228 4.8l5.143 8.572 1.715-1.03-5.143-8.57-1.715 1.028zm6.92 8.45l10.285-24-1.838-.787-10.286 24 1.838.788zm8.659-25.1L8.864 15.722l1.414 1.414 15.43-15.429L24.292.293z"/></svg>