<svg xmlns="http://www.w3.org/2000/svg" width="35" height="42" fill="none"><path fill="#737A92" d="M33.87 8.9H15.64c-.37-1.586-1.705-2.765-3.292-2.765h-.236l-1.865-4.742A.6.6 0 009.695 1a.6.6 0 00-.55.393L7.278 6.135H5.84c-.33 0-.598.289-.598.644V8.9H1.066c-.33 0-.598.289-.598.644v5.136c0 .355.268.644.598.644h4.175v1.463c0 .355.268.643.599.643h.87v18.858H2.058V41h10.86c.331 0 .483-.288.483-.644 0-.356-.152-.644-.482-.644H3.255v-2.136h12.879v2.136h-3.217c-.33 0-.598.288-.598.644 0 .356.268.644.598.644h4.414v-4.068-.644h-4.651V17.43h2.461c.33 0 .599-.288.599-.644v-1.462h14.592v5.842h-.36c-.33 0-.598.288-.598.644 0 .356.268.644.599.644h.359v1.64c0 .356.268.644.599.644.598 0 1.084.524 1.084 1.167s-.486 1.166-1.084 1.166c-.598 0-1.085-.523-1.085-1.166 0-.356-.268-.644-.598-.644-.331 0-.599.288-.599.644 0 1.353 1.023 2.454 2.282 2.454 1.258 0 2.281-1.1 2.281-2.454 0-1.13-.714-2.085-1.683-2.369v-1.082h.36c.33 0 .598-.288.598-.644 0-.355-.268-.644-.599-.644h-.359v-5.842h2.34c.33 0 .598-.289.598-.644V9.544c0-.355-.268-.644-.599-.644zM1.664 14.036v-2.937l2.73 2.937h-2.73zm3.576-.911l-2.73-2.937h2.73v2.937zm4.454-9.828l1.117 2.838H8.579l1.116-2.838zm1.789 32.991h-2.73l2.73-2.936v2.936zm-3.577-.91v-7.161l3.329 3.58-3.329 3.58zm3.577-5.136l-3.329-3.58 3.329-3.58v7.16zm-3.577-5.135v-6.766l3.145 3.383-3.145 3.383zm3.577-4.74l-2.73-2.937h2.73v2.937zm3.06-7.166h-4.311v-1.909c0-.355-.268-.643-.599-.643-.33 0-.598.288-.598.644v2.552c0 .356.268.644.598.644h4.91v1.653H6.438V7.423h2.597V9.19c0 .355.268.644.6.644.33 0 .598-.289.598-.644V7.423h2.115c1.21 0 2.195 1.06 2.195 2.362v3.416zm1.197-.076v-2.937h2.73l-2.73 2.937zm.846.91l3.145-3.382 3.145 3.383h-6.29zm4.407-3.847h6.656l-3.328 3.58-3.328-3.58zm4.773 3.848l3.329-3.58 3.328 3.58h-6.657zm7.503-.911l-2.73-2.937h2.73v2.937z"/><path stroke="#737A92" stroke-width=".5" d="M12.918 41H2.059v-4.712H6.71V17.431h-.87c-.33 0-.599-.289-.599-.645v-1.462H1.066c-.33 0-.598-.289-.598-.644V9.544c0-.355.268-.644.598-.644h4.175V6.78c0-.356.268-.645.599-.645h1.44l1.864-4.742A.6.6 0 019.695 1a.6.6 0 01.552.393l1.865 4.742h.236c1.587 0 2.923 1.18 3.291 2.765h18.23c.33 0 .599.289.599.644v5.136c0 .355-.268.644-.599.644H31.53v5.842h.36c.33 0 .598.288.598.644 0 .356-.268.644-.599.644h-.359v1.082c.969.284 1.683 1.238 1.683 2.369 0 1.353-1.023 2.454-2.281 2.454-1.259 0-2.282-1.1-2.282-2.454 0-.356.268-.644.599-.644.33 0 .598.288.598.644 0 .643.487 1.166 1.085 1.166s1.084-.523 1.084-1.166c0-.643-.486-1.167-1.084-1.167-.331 0-.599-.288-.599-.644v-1.64h-.36c-.33 0-.598-.288-.598-.644 0-.355.268-.644.599-.644h.359v-5.842H15.741v1.462c0 .356-.268.644-.599.644h-2.461v18.858h4.651V41h-4.414zm0 0c.331 0 .483-.288.483-.644 0-.356-.152-.644-.482-.644m0 1.288c-.331 0-.6-.288-.6-.644 0-.356.269-.644.6-.644m0 0H3.255v-2.136h12.879v2.136h-3.217zM1.665 14.036v-2.937l2.73 2.937h-2.73zm3.576-.911l-2.73-2.937h2.73v2.937zm4.454-9.828l1.117 2.838H8.579l1.116-2.838zm1.789 32.991h-2.73l2.73-2.936v2.936zm-3.577-.91v-7.161l3.329 3.58-3.329 3.58zm3.577-5.136l-3.329-3.58 3.329-3.58v7.16zm-3.577-5.135v-6.766l3.145 3.383-3.145 3.383zm3.577-4.74l-2.73-2.937h2.73v2.937zm3.06-7.166h-4.311v-1.909c0-.355-.268-.643-.599-.643-.33 0-.598.288-.598.644v2.552c0 .356.268.644.598.644h4.91v1.653H6.438V7.423h2.597V9.19c0 .355.268.644.6.644.33 0 .598-.289.598-.644V7.423h2.115c1.21 0 2.195 1.06 2.195 2.362v3.416zm1.197-.076v-2.937h2.73l-2.73 2.937zm.846.91l3.145-3.382 3.145 3.383h-6.29zm4.407-3.847h6.656l-3.328 3.58-3.328-3.58zm4.773 3.848l3.329-3.58 3.328 3.58h-6.657zm7.503-.911l-2.73-2.937h2.73v2.937z"/></svg>