<svg xmlns="http://www.w3.org/2000/svg" width="37" height="41" fill="none"><path fill="#737A92" d="M1.021 14.793l-.625-.78-.375.3v.48h1zM18.215 1l.625-.78a1 1 0 00-1.251 0l.626.78zm17.192 13.793h1v-.48l-.374-.3-.626.78zM5.934 23.07v-1h-1v1h1zm9.824 0h1v-1h-1v1zM2.021 41V14.793h-2V41h2zm-.374-25.427L18.84 1.78 17.59.22.396 14.013l1.251 1.56zM17.59 1.78l17.193 13.793 1.251-1.56L18.84.22 17.59 1.78zm16.818 13.013V41h2V14.793h-2zM6.934 41V23.069h-2V41h2zm-1-16.931h9.824v-2H5.934v2zm8.824-1V41h2V23.069h-2zm-2.684 9.276h3.684v-2h-3.684v2zM27.04 21.69v11.034h2V21.69h-2zm4.912-16.552v6.896h2V5.138h-2z"/><path fill="#737A92" d="M.714 40.966h17.5v-2H.714v2zm17.5 0h17.5v-2h-17.5v2z"/></svg>