<svg xmlns="http://www.w3.org/2000/svg" width="37" height="42" fill="none"><path fill="#737A92" stroke="#737A92" stroke-width=".6" d="M32.627 13.862a.549.549 0 00-.413-.195H20.549v-1.334h11.667c.154 0 .302-.07.412-.195l2.917-3.333a.718.718 0 00.17-.472.718.718 0 00-.17-.471l-2.917-3.333a.549.549 0 00-.413-.196H20.549v-.666c0-.708-.246-1.386-.684-1.886-.437-.5-1.03-.781-1.65-.781-.618 0-1.212.281-1.65.781-.437.5-.683 1.178-.683 1.886V9H4.214a.549.549 0 00-.412.195L.885 12.53a.718.718 0 00-.17.471c0 .177.06.346.17.471l2.917 3.334c.11.125.258.195.412.195h11.667v17.333h-.583a.53.53 0 00-.307.1.643.643 0 00-.215.269L13.77 37h-1.39a.53.53 0 00-.307.1.642.642 0 00-.215.269l-1.167 2.666a.749.749 0 00.026.649.625.625 0 00.212.232.528.528 0 00.284.084h14c.1 0 .198-.028.286-.083a.625.625 0 00.213-.232.748.748 0 00.026-.65l-1.166-2.666a.642.642 0 00-.217-.27.53.53 0 00-.308-.099h-1.39l-1.002-2.298a.641.641 0 00-.216-.27.53.53 0 00-.309-.099h-.583V21.667h11.667a.55.55 0 00.412-.196l2.917-3.333a.718.718 0 00.17-.471.718.718 0 00-.17-.472l-2.917-3.333zm-12.08-8.195h11.426l2.333 2.666L31.973 11H20.548V5.667zm-3.5-2c0-.354.124-.693.342-.943.22-.25.516-.39.825-.39.31 0 .607.14.825.39.22.25.342.589.342.943v30.666h-2.333V3.667zm-12.591 12L2.122 13l2.334-2.667H15.88v5.334H4.456zm19.231 22.666l.584 1.334H12.158l.584-1.334h10.945zm-2.917-2.666L21.354 37h-6.28l.584-1.333h5.112zm11.2-15.334H20.549V15h11.425l2.333 2.667-2.335 2.666z"/></svg>