<svg xmlns="http://www.w3.org/2000/svg" width="41" height="42" fill="none"><path fill="#737A92" d="M20.468 1l.472-.881a1 1 0 00-.944 0l.472.881zm-16 8.571l-.472-.881-.528.283v.598h1zm32 0h1v-.598l-.528-.283-.472.881zm-21.334 20v-1h-1v1h1zm10.667 0h1v-1h-1v1zM.468 42h40v-2h-40v2zM19.996.119l-16 8.57.944 1.764 16-8.572L19.996.12zm16.944 8.57l-16-8.57-.944 1.762 16 8.572.944-1.763zm-17.472-.546v7.143h2V8.143h-2zm0 7.143v7.143h2v-7.143h-2zm-5.667 1h6.667v-2H13.8v2zm6.667 0h6.666v-2h-6.666v2zm-17-6.715V41h2V9.571h-2zm32 0V41h2V9.571h-2zM16.134 41V29.571h-2V41h2zm-1-10.429h10.667v-2H15.134v2zm9.667-1V41h2V29.571h-2z"/></svg>