<svg xmlns="http://www.w3.org/2000/svg" width="41" height="42" fill="none"><path fill="#737A92" d="M4.468 6.714v-1a1 1 0 00-.983.817l.983.183zm32 0l.983-.183a1 1 0 00-.983-.817v1zM39.134 21v1a1 1 0 00.983-1.183l-.983.183zM1.801 21l-.983-.183A1 1 0 001.801 22v-1zm8 8.571h-1v1h1v-1zm21.333 0v1h1v-1h-1zM.468 42h40v-2h-40v2zm3-21v20h2V21h-2zm32 0v20h2V21h-2zm-31-13.286h32v-2h-32v2zm31.017-.816l2.666 14.285 1.966-.366L37.452 6.53l-1.966.367zM39.135 20H1.8v2h37.333v-2zm-36.35 1.183L5.45 6.898 3.485 6.53.818 20.817l1.966.366zM8.8 21v8.571h2V21h-2zm1 9.571h21.333v-2H9.801v2zm22.333-1V21h-2v8.571h2zM3.134 2h17.334V0H3.134v2zm17.334 0H37.8V0H20.468v2z"/></svg>