<svg xmlns="http://www.w3.org/2000/svg" width="35" height="42" fill="none"><path fill="#737A92" stroke="#737A92" stroke-width=".6" d="M17.213 14.333c.913 0 1.807-.273 2.566-.786a4.657 4.657 0 001.702-2.095 4.71 4.71 0 00.263-2.696 4.682 4.682 0 00-1.264-2.39 4.606 4.606 0 00-2.366-1.276 4.577 4.577 0 00-2.67.265 4.63 4.63 0 00-2.073 1.719 4.7 4.7 0 00.576 5.89 4.602 4.602 0 003.266 1.37zm0-8c.652 0 1.29.196 1.833.562.543.366.966.887 1.216 1.496.25.61.315 1.28.187 1.926a3.345 3.345 0 01-.903 1.707 3.29 3.29 0 01-1.69.912 3.269 3.269 0 01-1.906-.19 3.308 3.308 0 01-1.481-1.227 3.358 3.358 0 01.412-4.208 3.287 3.287 0 012.332-.978zM17.213 25.667c.913 0 1.807-.274 2.566-.787a4.657 4.657 0 001.702-2.094 4.71 4.71 0 00.263-2.697A4.682 4.682 0 0020.48 17.7a4.606 4.606 0 00-2.366-1.277 4.578 4.578 0 00-2.67.266 4.63 4.63 0 00-2.073 1.718 4.7 4.7 0 00.576 5.891 4.602 4.602 0 003.266 1.369zm0-8c.652 0 1.29.195 1.833.561.543.367.966.887 1.216 1.496.25.61.315 1.28.187 1.926a3.344 3.344 0 01-.903 1.707 3.27 3.27 0 01-3.596.723 3.307 3.307 0 01-1.481-1.228 3.357 3.357 0 01.412-4.208 3.287 3.287 0 012.332-.977zM17.213 37c.913 0 1.807-.274 2.566-.787a4.657 4.657 0 001.702-2.094 4.71 4.71 0 00.263-2.696 4.682 4.682 0 00-1.264-2.39 4.605 4.605 0 00-2.366-1.277 4.577 4.577 0 00-2.67.266 4.63 4.63 0 00-2.073 1.719 4.7 4.7 0 00.576 5.89A4.602 4.602 0 0017.213 37zm0-8c.652 0 1.29.195 1.833.562.543.366.966.886 1.216 1.496.25.609.315 1.279.187 1.925a3.345 3.345 0 01-.903 1.707 3.29 3.29 0 01-1.69.912 3.269 3.269 0 01-1.906-.19 3.308 3.308 0 01-1.481-1.227 3.358 3.358 0 01.412-4.208A3.287 3.287 0 0117.212 29z"/><path fill="#737A92" stroke="#737A92" stroke-width=".6" d="M33.264 8.299a.66.66 0 00.45-.632v-2a.67.67 0 00-.193-.472.656.656 0 00-.467-.195h-7.26V1.667a.67.67 0 00-.193-.472.656.656 0 00-.467-.195H9.294a.657.657 0 00-.466.195.67.67 0 00-.194.472V5h-7.26a.657.657 0 00-.466.195.67.67 0 00-.194.472v2a.671.671 0 00.451.632c.056.019 5.584 1.937 7.47 6.188v1.846h-7.26a.657.657 0 00-.467.196.67.67 0 00-.194.471v2a.671.671 0 00.451.632c.056.02 5.584 1.937 7.47 6.189v1.846h-7.26a.657.657 0 00-.467.195.67.67 0 00-.194.471v2a.672.672 0 00.451.632c.056.02 5.584 1.938 7.47 6.189v3.18c0 .176.069.346.193.47a.656.656 0 00.466.196h15.84c.175 0 .343-.07.467-.195a.67.67 0 00.193-.472v-3.179c1.886-4.251 7.414-6.17 7.47-6.189a.66.66 0 00.45-.632v-2a.67.67 0 00-.193-.471.656.656 0 00-.467-.195h-7.26V25.82c1.886-4.252 7.414-6.17 7.47-6.189a.66.66 0 00.45-.632v-2a.67.67 0 00-.193-.471.657.657 0 00-.467-.196h-7.26v-1.846c1.886-4.251 7.414-6.169 7.47-6.188zm-.87-1.966V7.2a16.273 16.273 0 00-6.6 4.727V6.333h6.6zM2.034 7.2v-.867h6.6v5.594a16.273 16.273 0 00-6.6-4.727zm0 11.333v-.866h6.6v5.593a16.274 16.274 0 00-6.6-4.727zm0 11.334V29h6.6v5.593a16.274 16.274 0 00-6.6-4.726zm22.44 9.8H9.954V2.333h14.52v37.334zM32.394 29v.867a16.274 16.274 0 00-6.6 4.726V29h6.6zm0-11.333v.866a16.274 16.274 0 00-6.6 4.727v-5.593h6.6z"/></svg>