<svg xmlns="http://www.w3.org/2000/svg" width="43" height="42" fill="none"><path fill="#737A92" stroke="#737A92" stroke-width=".3" d="M32.029 26.778c-1.922 0-3.48 1.592-3.48 3.555 0 1.964 1.558 3.556 3.48 3.556 1.921 0 3.48-1.592 3.48-3.556-.003-1.962-1.56-3.553-3.48-3.555zm0 5.333c-.961 0-1.74-.796-1.74-1.778 0-.981.779-1.777 1.74-1.777.96 0 1.74.796 1.74 1.777 0 .982-.78 1.778-1.74 1.778zM11.152 26.778c-1.922 0-3.48 1.592-3.48 3.555 0 1.964 1.558 3.556 3.48 3.556 1.921 0 3.48-1.592 3.48-3.556-.003-1.962-1.56-3.553-3.48-3.555zm0 5.333c-.961 0-1.74-.796-1.74-1.778 0-.981.779-1.777 1.74-1.777.96 0 1.74.796 1.74 1.777 0 .982-.78 1.778-1.74 1.778zM31.995 5.444H11.152c-2.146 0-3.48 1.363-3.48 3.556v13.333c0 2.06 1.463 3.556 3.48 3.556h20.877c1.195 0 3.48-1.385 3.48-3.556v-13.3c-.003-1.98-1.574-3.587-3.514-3.589zm1.773 16.89c0 1.019-1.331 1.777-1.74 1.777H11.153c-1.073 0-1.74-.682-1.74-1.778V9c0-1.23.537-1.778 1.74-1.778h20.843c.98.001 1.772.812 1.773 1.812v13.3z"/><path fill="#737A92" stroke="#737A92" stroke-width=".3" d="M39.858 9.889h-.87V7.222C38.984 3.787 36.261 1.004 32.9 1H10.283c-3.361.004-6.085 2.787-6.09 6.222V9.89h-.869c-1.441 0-2.61 1.194-2.61 2.667v5.333c0 .982.78 1.778 1.74 1.778h1.74v14.222c.002.888.332 1.743.924 2.394a.885.885 0 00-.054.273v2.666c0 .924.21 1.778 1.74 1.778h4.349c1.74 0 1.74-1.224 1.74-1.812v-1.744H30.29v1.744c0 .588 0 1.812 1.74 1.812h4.349c1.74 0 1.74-1.224 1.74-1.812v-2.632a.885.885 0 00-.055-.273c.592-.651.922-1.506.924-2.394V19.667h1.74c.96 0 1.74-.796 1.74-1.778v-5.333c0-1.473-1.169-2.667-2.61-2.667zm-35.664 8h-1.74v-5.333c0-.491.39-.89.87-.89h.87v6.223zm6.959 21.299v.034h-4.35v-1.904c.284.08.576.123.87.127h3.48v1.743zm25.226.034h-4.35v-1.778h3.48a3.37 3.37 0 00.87-.126v1.904h0zm.87-5.333c0 .982-.78 1.778-1.74 1.778H7.673c-.96 0-1.74-.796-1.74-1.778V7.222c.003-2.453 1.949-4.441 4.35-4.444h22.616c2.401.003 4.347 1.99 4.35 4.444V33.89h0zm3.48-16h-1.74v-6.222h.87c.48 0 .87.398.87.889v5.333z"/></svg>