<svg xmlns="http://www.w3.org/2000/svg" width="47" height="42" fill="none"><path fill="#737A92" stroke="#737A92" stroke-width=".5" d="M14.673 1c-.357-.008-2.715.01-4.385 1.848-1.357 1.5-1.75 3.65-1.036 5.601.036.104.072.208.116.312.045.104.08.209.134.313-3.224.641-5.537 3.407-5.51 6.607a6.62 6.62 0 001.349 4.032C2.66 21.039.983 23.719 1 26.64c-.054 4.205 3.411 7.648 7.733 7.708 1.295 0 2.563-.33 3.697-.945v6.122H1.76V41h44.954v-.737-.737h-1.518v-2.22h.76v-1.474h-.76v-.737h.76v-1.474h-.76v-2.22h.76v-1.474h-.76a.748.748 0 00-.759-.737c-.42 0-.759.33-.759.737H31.479a.748.748 0 00-.759-.737c-.42 0-.759.33-.759.737h-.759v1.474h.76v2.22h-.76v1.474h.76v.737h-.76v1.474h.76v2.22H17.002v-6.122a7.721 7.721 0 003.698.945c4.33-.06 7.787-3.511 7.733-7.708.027-2.922-1.66-5.601-4.34-6.928a6.595 6.595 0 001.349-4.024c.026-3.2-2.287-5.965-5.51-6.598.098-.2 1.277-2.853-.375-5.402C17.906 1.105 14.896 1 14.673 1zm.803 38.526H13.95V32.32c.277-.242.527-.511.76-.797.232.286.49.546.758.797l.01 7.206zm.099-9.4l5.018-4.873-.009-1.04-1.071-.009-4.037 3.92v-7.527l3.59-3.486v-1.04h-1.071l-2.51 2.436-.008-4.127H13.957l.01 4.127-2.52-2.436h-1.07v1.04l3.59 3.486v7.527l-4.037-3.92H8.859v1.04l5.019 4.874c-1.116 1.7-3.045 2.731-5.126 2.74-3.483-.06-6.269-2.844-6.215-6.234-.036-2.68 1.714-5.073 4.322-5.94a.735.735 0 00.295-1.231 5.202 5.202 0 01-1.626-3.79c-.053-2.826 2.25-5.159 5.153-5.237a.806.806 0 00.768-.399.713.713 0 00-.063-.771 4.264 4.264 0 01-.875-2.55c-.035-2.297 1.849-4.196 4.224-4.24 2.367.044 4.26 1.943 4.224 4.24a4.15 4.15 0 01-.875 2.55.713.713 0 00-.053.771.78.78 0 00.687.408c2.93.052 5.26 2.393 5.215 5.237a5.202 5.202 0 01-1.625 3.79.72.72 0 00-.205.693c.062.252.25.45.5.538 2.929.997 4.715 3.867 4.25 6.85-.464 2.983-3.045 5.21-6.143 5.324-2.09 0-4.019-1.04-5.135-2.74zm28.103 9.4H31.479v-2.22h12.19v2.22h.009zm0-3.694H31.479v-.737h12.19v.737h.009zm0-2.22H31.479v-2.22h12.19v2.22h.009z"/></svg>