<svg xmlns="http://www.w3.org/2000/svg" width="48" height="48" fill="none"><path fill="#737A92" d="M10.2 41.6v1h2v-1h-2zm25.6 0v1h2v-1h-2zm-23.6 0V40h-2v1.6h2zm8.6-10.2h6.4v-2h-6.4v2zm15 8.6v1.6h2V40h-2zm-8.6-8.6a8.6 8.6 0 018.6 8.6h2c0-5.855-4.746-10.6-10.6-10.6v2zm-15 8.6a8.6 8.6 0 018.6-8.6v-2c-5.855 0-10.6 4.745-10.6 10.6h2zM24 10.2a7.4 7.4 0 00-7.4 7.4h2a5.4 5.4 0 015.4-5.4v-2zm7.4 7.4a7.4 7.4 0 00-7.4-7.4v2a5.4 5.4 0 015.4 5.4h2zM24 25a7.4 7.4 0 007.4-7.4h-2A5.4 5.4 0 0124 23v2zm0-2a5.4 5.4 0 01-5.4-5.4h-2A7.4 7.4 0 0024 25v-2zm0 22.4C12.18 45.4 2.6 35.82 2.6 24h-2C.6 36.924 11.076 47.4 24 47.4v-2zM45.4 24c0 11.819-9.581 21.4-21.4 21.4v2c12.923 0 23.4-10.476 23.4-23.4h-2zM24 2.6c11.819 0 21.4 9.581 21.4 21.4h2C47.4 11.077 36.923.6 24 .6v2zm0-2C11.076.6.6 11.077.6 24h2C2.6 12.181 12.18 2.6 24 2.6v-2z"/></svg>